<?xml version="1.0" encoding="utf-8"?>
<!-- Generator: Adobe Illustrator 28.0.0, SVG Export Plug-In . SVG Version: 6.00 Build 0)  -->
<svg version="1.1" id="Layer_1" xmlns="http://www.w3.org/2000/svg" xmlns:xlink="http://www.w3.org/1999/xlink" x="0px" y="0px"
	 viewBox="0 0 1728 1296" style="enable-background:new 0 0 1728 1296;" xml:space="preserve">
<style type="text/css">
	.st0{fill:#946153;}
	.st1{fill:#BCDFF5;}
	.st2{fill:#532F0F;}
	.st3{fill:#BC7257;}
	.st4{fill:#DE9271;}
	.st5{fill:#DD9F76;}
	.st6{fill:#471F08;}
	.st7{fill:#E7A487;}
	.st8{fill:#462B0C;}
	.st9{opacity:0.7098;fill:#BC7257;}
	.st10{fill:#523219;}
	.st11{fill:#220A00;}
	.st12{fill:#522F18;}
	.st13{fill:#DBC1AA;}
	.st14{fill:#413F29;}
	.st15{fill:#2E2717;}
	.st16{opacity:0.3686;fill:#CE8662;}
	.st17{fill:#100000;}
	.st18{fill:#D4C8B2;}
	.st19{fill:#393B23;}
	.st20{fill:#160F07;}
	.st21{opacity:0.6588;}
	.st22{fill:#D36D70;}
	.st23{fill:#DB7F84;}
	.st24{fill:#923239;}
	.st25{fill:#49270B;}
	.st26{fill:#8B734F;}
	.st27{fill:#4C2F0D;}
	.st28{fill:#70563A;}
</style>
<g>
	<path class="st0" d="M633.26,1083.52c0,0-31.54,57.46-35.11,67.43c-4.35,12.15-17.64,33.86-25.08,44.53
		c-6.08,8.71-11.07,43.47-11.07,43.47l24.83,0.18h66.34h90.82h82.65l75.79,2c0,0,1.03-6.78,12.9-22.56
		c8.46-11.24,30.55-47.66,36.73-60.19c7.49-15.18,28.23-37.33,33.56-53.33c5.88-17.66,26.17-50.28,27.68-68.77
		c1.05-12.82,9.29-56.8,9.29-56.8l2.6-48.43c0,0-23.33,37.03-35.64,51.66c-9.11,10.83-37.43,36.39-48.2,45.7
		c-18.4,15.9-46.25,38.38-64.85,54.31c-13.79,11.81-53.29,39.16-68.36,49.42c-8.44,5.75-33.14,16.49-44.34,20.12
		c-8.53,2.76-23.46,3.31-32.46,3.49c-8.27,0.16-20.11-2.07-30-6.32c-6.54-2.81-26.91-14.97-31.61-20.17l-25.91-27.4L633.26,1083.52z
		"/>
	<polygon class="st1" points="513.84,960.97 465.81,1003.3 409.64,1039.93 364.05,1103.43 311.14,1179.14 288.34,1232.87 
		288.34,1250.78 345.33,1243.45 388.47,1240.2 411.27,1236.94 451.97,1198.68 478.02,1162.05 504.88,1101.8 518.72,1033.42 	"/>
	<path class="st2" d="M435.64,497.14c0,0-0.93-23.55-1-31.4c-0.08-9,0.36-27.01,1-36c0.59-8.26,2.84-24.71,4-32.94
		c1.16-8.24,3.96-24.68,5-32.94c1.39-11.11,3.29-33.45,5.99-44.43c2.26-9.16,9.82-27.2,15.99-35.23
		c4.57-5.95,18.79-16.14,19.98-22.98c0.94-5.4-8.99-20.68-8.99-20.68s-15.19-12.48-21.98-12.26c-9.71,0.32-22.11,14.74-27.97,20.68
		c-6.67,6.76-15.74,22.53-18.98,30.64c-3.76,9.4-5.85,29.23-5.99,39.06c-0.35,24.19,5.52,72.47,8.99,96.51L435.64,497.14z"/>
	<path class="st3" d="M662.04,791.04c-7.16,0.62-20.73,14.11-19.45,21.19c1.27,6.99,20.09,17.63,25.36,12.85
		C667.95,825.07,670.65,790.29,662.04,791.04z"/>
	<path class="st4" d="M714.14,1155.14l-8.3,83.47l195.18-0.55c0,0,84.51-124.09,101.09-167.2c10.21-26.53,17.38-59.89,22.34-87.89
		c2.13-12.01,0.32-50.08,0.32-50.08s-18.49,29.91-49.56,63.11c-23.75,25.39-67.01,60.53-82.2,73.75
		c-28.02,24.39-96.3,76.15-132.68,83.67C747.94,1155.99,714.14,1155.14,714.14,1155.14z"/>
	<path class="st5" d="M808.73,1124.2l64.61-51.04l71.28-64.88l80.94-90.45c0,0-7.26,60.39-14.31,78.75
		c-9.79,25.51-35.89,70.15-50.08,88.7c-15.2,19.87-49.6,46.05-66.67,55.18c-14.28,7.63-43.72,13.26-56.2,7.11
		C831.44,1144.18,808.73,1124.2,808.73,1124.2z"/>
	<path class="st6" d="M497.63,902.47c0,0,23.05,35.54,29.11,45.23c6.64,10.63,21.02,27.94,28.4,38.06
		c9.43,12.93,20.15,27.36,26.81,34.87c7.01,7.91,20.67,20.23,26.74,28.87c4.22,6,22.65,24.26,26.38,30.57
		c9.09,15.39,31.63,43.48,31.63,43.48l-37.06,115.54l-226.24-0.16c0,0,44.6-46.37,58.99-62.26c9.2-10.15,20.53-35.91,24.51-49.02
		c4.44-14.63,11.4-44.54,13.02-59.74c1.65-15.43,2.48-46.56,1.53-62.04c-0.92-15.16-3.76-45.41-5.36-60.51
		C494.97,934.69,497.63,902.47,497.63,902.47z"/>
	<path class="st7" d="M528.68,238.41c-10.88,4.38-55.07,30.7-60.66,41.81c-2.06,4.1-10.12,15.87-14.24,28.92
		c-5.35,16.95-12.13,48.5-13.1,60.19c-1.35,16.32-4.81,47.53-6.1,63.86c-1.13,14.37,0.72,64.68,1.44,79.08
		c0.78,15.83,5.23,32.18,4.89,48.03c-0.16,7.61-1.47,21.83-0.3,29.35c1,6.39,13.29,32.95,15.19,39.12
		c2.18,7.07,8.89,30.79,8.89,30.79s-1.3,26.25-0.64,34.12c0.59,6.98,0.97,18.01,1,25.01c0.07,13.42,0.4,26.27,0.77,39.69
		c0.36,13.05,1.59,42.16,3.06,55.13c1.39,12.24,11.18,45.53,14.96,57.24c4.77,14.8,19.03,42.6,26.81,56.02
		c11.62,20.06,39.45,57.2,53.62,75.48c9.41,12.13,29.7,35.17,39.83,46.69c7.96,9.05,24.33,26.8,31.4,36.57
		c6.14,8.47,16.32,22.96,22.98,31.02c7.18,8.68,24.5,27.7,34.47,32.79c9.23,4.71,30.27,7.61,40.6,7.78
		c10.14,0.17,30.14-4.75,39.83-7.78c8.51-2.66,24.62-10.77,32.17-15.56c6.69-4.25,24.88-15.03,30.86-20.26
		c6.38-5.57,22.89-14.25,29.49-19.55c7.09-5.7,27.65-23.82,34.63-29.66c8.68-7.26,25.59-22.31,33.66-30.28
		c7.87-7.77,39.13-34.76,46.68-42.85c6.71-7.19,11.88-13.64,18.84-20.59c6.67-6.66,9.52-16.52,16.37-22.99
		c5.95-5.63,11.39-21.34,15.75-28.31c3.42-5.46,1.5-4.66,3.58-10.77c3.67-10.76,8.26-37.73,11.42-48.65
		c2.19-7.58,6.53-23.32,5.36-31.12c-4.09-27.27-37.28-73.56-49.79-98.04c-7.34-14.36-22.11-43.05-29.11-57.58
		c-9.79-20.32-28.2-61.54-38.3-81.7c-9.52-19-30.04-56.23-39.06-75.48c-11.42-24.38-32.39-62.48-43.89-86.82
		c-10.88-23.01-34.92-70.12-49.79-90.71c-14.83-20.53-67.17-84.7-67.17-84.7s-13.15-8.33-18.02-10.87
		c-13.98-7.27-62.81-17.78-62.81-17.78l-63.87-0.25C590.38,224.81,546.17,231.37,528.68,238.41z"/>
	<path class="st8" d="M625.2,99.62c0,0,62.03,9.06,79.99,13.61c22.25,5.63,59.09,21.58,79.24,32.56
		c7.63,4.16,26.99,21.91,26.99,21.91s-27.11-33.19-38.34-41.86c-13.2-10.2-49.36-33.6-66.03-32.99L625.2,99.62z"/>
	<polygon class="st1" points="1172.89,1027.65 1204.64,1063.47 1248.6,1094.41 1288.49,1118.83 1338.15,1145.69 1360.13,1183.95 
		1375.43,1243.31 1248.6,1241.75 1182.66,1238.5 1151.72,1237.68 1153.35,1147.32 	"/>
	<path class="st9" d="M708.2,749.77l13.47,7.63l9.13,6.67c0,0,6.4,7.93,7.37,12.15c1.14,4.99,6.16,16.34,5.88,21.45
		c-0.11,1.96-0.94,5.15-1.43,6.83c-0.63,2.13-2.02,6.37-2.98,8.38c-1.9,3.99-9.21,15.09-9.21,15.09s18.43-21.6,25.75-22.68
		c4.02-0.59,5.03,1.1,8.29,3.52c4.28,3.18,11.52,11.11,15.17,15c2.19,2.34,6.53,7.08,8.86,9.27c5.42,5.09,17.75,15.69,22.68,21.26
		c4.7,5.31,15.22,21.92,15.22,21.92l-67.73-86.68"/>
	<path class="st10" d="M470.97,274.87c0,0,55.91-53.27,152.95-46.58c64.2,4.43,87.33-1.38,151.01,79.88
		c77.52,98.92,47.19,80.63,137.94,244.87c10.62,19.22,58.66,137.81,70.79,163.38c9.5,20.03,45.83,61.42,47.87,83.49
		c1.54,16.72-8.02,42.85-8.43,59.64c-0.35,14.19,1.28,58.49,1.06,72.68c-0.55,35.23-7.05,97.15-18.68,130.4
		c-7.68,21.95-35.01,60.34-46.72,80.43c-13.99,24-56.13,95.89-56.13,95.89l253.32-1c0,0,1.34-63.42,0.94-90.04
		c-0.67-44.42,15.83-71.28,16-115.7c0.36-92.08-25.83-362.99-36.68-454.21c-28.31-238.01-56.94-287.54-61.64-301.58
		C1029.02,140.28,924.44,74.91,820.89,50.8c-81.74-19.03-164.01,8.48-220.43,33.83c-37.59,16.89-110.89,60.21-133.42,100.98
		c-5.3,9.6-13.23,31.85-10.12,42.68L470.97,274.87z"/>
	<path class="st11" d="M581.21,631.02c2.4,1.18,7.06,3.89,9.34,5.34c2.95,1.86,8.74,6.1,10.78,9.07c1.58,2.29,3.16,8.83,1.81,11.28
		c-2.64,4.77-14.36,6.42-19.45,6.87c-3.85,0.34-18.48,3.59-22.26,4.51c-6.24,1.52-16.8,3.57-22.4,4.76
		c-5.01,1.07-15.05,3.39-19.81,5.41c-4.99,2.11-10.12,5.09-14.09,9c-2.3,2.27-12.14,13.15-12.14,13.15l5.45-13.71
		c0,0,3.54-4.96,2.4-6.03c-3.63-3.44-16.42,10.94-16.42,10.94l5.88-11.74l-0.25-5.87c0,0-7.74,1.46-10.54,2.7
		c-2.88,1.27-12.01,7.18-12.01,7.18s15.7-9.69,13.73-14.41c-2.32-5.55-24.58,0.9-24.58,0.9s13.15-9.05,16.22-11.84
		c2.64-2.4,4.95-5.27,4.95-5.27s-5.24-9.43-6.77-10.72c-2.18-1.84-9.31-7.64-9.31-7.64s24.1,12.46,26.6,7.08
		c1.55-3.33-14.75-14.92-14.75-14.92s17.47,8.94,21.61,9.85c2.11,0.46,5.48,1.45,6.31-0.7c1.38-3.57-11.19-13.41-11.19-13.41
		l16.36,9.39l3.47,1.52l-8.06-19.28c0,0,14.76,8.75,20.23,9.2c2.43,0.2,7.06-2.14,9.47-2.6c4.97-0.95,15.2-0.74,20.19,0.07
		c3.99,0.65,11.87,2.74,15.71,4.1C567.69,625.17,577.89,629.39,581.21,631.02z"/>
	<path class="st12" d="M466.81,553.99c-3.69,0.89-14.33,6.66-18.19,9.49c-4.69,3.44-11.37,8.22-13.13,13.77
		c-0.86,2.69-1.13,9.47,1.06,11.25c3.01,2.44,11.69,0.96,15.5,0.21c5.17-1.02,14.35-4.96,19.59-5.46c5.18-0.49,18.63-0.96,23.8-0.36
		c4.06,0.47,11.07,2.11,15.13,2.55c4.7,0.51,13.41,2.18,17.89,2.85c5.71,0.85,17.21,1.98,22.93,2.76c3.94,0.54,9.86,2.56,13.71,1.55
		c1.79-0.47,4.64-4.82,4.73-6.67c0.2-4.01-3.58-7.3-6.76-9.74c-3.29-2.51-10.04-7.4-13.8-9.13c-5.7-2.62-17.84-6.14-23.99-7.43
		c-6.05-1.26-18.3-2.91-24.41-3.82c-4.68-0.7-13.98-2.44-18.68-2.97C482.18,552.83,471.03,552.97,466.81,553.99z"/>
	<path class="st13" d="M492.5,654.09c-0.19-4.59,7.84-10.92,11.11-13.82c3.66-3.24,11.94-8.51,16.43-10.06
		c6.13-2.13,18.99-4.56,25.42-4.47c6.67,0.09,20.11,1.65,26.45,3.91c5.1,1.82,14.9,6.93,19.26,10.34c2.55,1.99,9.24,9.23,9.24,9.23
		s-4.68,5.36-6.68,6.43c-5.16,2.77-16.95,3.54-22.6,4.75c-6.04,1.3-17.62,6.08-23.63,7.55c-5.94,1.45-18.06,3.42-24.14,3.35
		c-4.52-0.04-13.31-0.39-16.84-3.47C506.55,667.83,492.72,659.22,492.5,654.09z"/>
	<path class="st14" d="M523.19,629.11c0,0-2.48,2.75-3.75,7.51c-1.37,5.15-1.73,6.33-0.72,13.44c0.47,3.32,3.11,8.22,5.17,10.71
		c0.82,0.99,4.01,4.96,6.25,6.93s4.77,2.69,4.77,2.69s10.46-1.26,13.36-2.16c3.88-1.2,7.69-2.73,11.43-4.36
		c2.77-1.2,7.45-1.7,9.95-3.47c2.1-1.48,5.62-8.01,6.12-10.68c0.53-2.82-1.86-12.46-3.92-15.1c-1.78-2.28-6.9-6.75-6.9-6.75
		s-10.16-1.99-19.73-2.31c-1.32-0.04-6.81,0.15-10.33,0.66C530.48,626.88,523.19,629.11,523.19,629.11z"/>
	<path class="st15" d="M534.85,645.03c-0.38-4.67,4.61-8.61,8.8-8.89c5.34-0.36,9.12,5.07,9.24,8.81c0.12,3.42-2.76,6.8-4.02,7.64
		c-1.31,0.86-5.97,2.42-9.41,1.02C537.91,652.96,535.17,649.01,534.85,645.03z"/>
	<path class="st16" d="M606.55,670.67c0,0,0.33,36.31,0.03,46.76c-0.34,11.85-0.79,31.92-2.49,42.41
		c-1.07,6.57-3.27,20.57-5.63,26.79c-2.29,6.04-10.02,20.96-11.05,27.33c-1,6.19,2.59,17.9,4.68,23.81
		c1.31,3.7,12.39,8.34,17.63,11.25c10.8,5.99,23.49,6.27,28.07,4.27c13.64-5.97,34.96-9.09,52.56-13.59c20.98-5.36,32,1.84,32,1.84
		s-63.83,34.59-82.14,52.3c-5.45,5.27-14.27,14.58-21.23,17.6c-6.92,3-19.63,3.51-27.18,3.53c-9.22,0.02-27.81,6.59-36.84,4.77
		c-6.25-1.25-19.63-7.46-21.62-13.51c-1.73-5.26,6.18-15.61,6.63-21.12c0.51-6.24-2.62-18.26,1.76-24.98
		c3.76-5.78,24.52-18.57,28-26.44c2.7-6.11,6.05-16.37,8.56-22.56c2.29-5.64,6.54-28.07,9.09-33.6c2.56-5.54,8.57-16.38,9.83-22.35
		c1.77-8.41,0-34.39,0-34.39L606.55,670.67z"/>
	<g>
		<path class="st17" d="M767.36,600.96c-6.47,3.39-17.76,14.05-23.33,19.33c-3.85,3.65-12.04,10.26-15.47,14.5
			c-2.54,3.14-0.9,8.52-0.9,8.52s5.61,2.87,8.94,2.57c3.62-0.33,7.47,0.77,11.1,0.51c4.71-0.34,14.16,0.35,18.88,0.64
			c6.03,0.37,18.09,1,24.12,1.29c5.31,0.26,15.93,1.13,21.24,0.97c5.33-0.16,14.59,0.05,14.59,0.05s8.95-3.77,11.25-3.33
			c2.78,0.53,11.77,7.63,14.01,5.53c2.04-1.91-5.57-9.03-4.07-11.6c2.81-4.81,18.23,7.73,18.23,7.73s-3.67-9.97-1.78-11.92
			c3.47-3.58,16.99,7.73,16.99,7.73s-8.29-12.2-6.03-15.46c3.63-5.24,21.5,7.73,21.5,7.73s-10.92-9.85-10.35-14.65
			c0.46-3.92,10.88-8.54,10.88-8.54s-19.24,5.7-21.35-0.32c-1.2-3.41,8.17-10.93,8.17-10.93s-16.02,7.06-19.59,2.88
			c-1.38-1.61,0.52-9.34,0.52-9.34s-15.93,7.87-18.82,3.23c-1.1-1.75,2.81-8.14,2.81-8.14s-15.53,1.3-20.71,1.38
			c-3.6,0.06-10.85,0.73-14.4-0.01C813.77,591.3,789.07,589.59,767.36,600.96z"/>
		<path class="st18" d="M740.17,633.21c-1.5-5.96,12.76-9.34,16.84-13.05c3.27-2.98,10.15-8.36,13.63-10.95
			c3.94-2.93,12.12-8.33,16.52-9.99c5.78-2.19,17.73-3.05,24.06-3.29c6.48-0.24,19.96,2.76,26.94,3.95
			c5.38,0.92,19.36,10.15,22.67,15.44c1.4,2.24,0.62,9.04-0.79,11.28c-2.18,3.47-10.09,4.41-13.37,6.12
			c-6.31,3.3-19.44,10.53-26.18,12.07c-6.97,1.58-20.52,0.08-27.57-0.79c-6.4-0.79-24.6-3.94-30.99-4.83
			C761.94,639.17,742.12,640.94,740.17,633.21z"/>
		<path class="st19" d="M784.71,600.32c0,0-5.48,9.77-5.92,13.84c-0.61,5.73-0.42,11.45,1.27,16.05c2.36,6.4,7.24,12.99,7.24,12.99
			s11.74,1.75,15.67,1.99c5.18,0.32,10.93,1.37,16.06,0.46c1.92-0.34,7.21-2.07,11.27-4.09c4.67-2.33,8.02-4.47,8.02-4.47
			s1.6-5.08,2.24-10.02c0.49-3.78,1.07-7.07,0.6-10.89c-0.71-5.91-9.35-17.47-9.35-17.47s-11.82-2.35-16.17-2.79
			c-5.74-0.59-12.8-1.36-18.17,0c-2.73,0.69-3.17,0.82-6.05,1.67C788.12,598.57,784.71,600.32,784.71,600.32z"/>
		<path class="st20" d="M801.53,615.96c-1.8,2.45,0.26,8.69,2,11.21c1.8,2.62,8.88,4.47,11.01,2.26c1.79-1.86,3.77-8.64,2.84-11.28
			c-0.82-2.3-4.66-6.14-6.79-6.77C808.78,610.85,802.72,614.33,801.53,615.96z"/>
	</g>
	<g class="st21">
		<path class="st22" d="M594.75,929.45c0,0,19.95,15.89,25.53,22.26c3.84,4.38,9.79,14.77,14.4,18.33
			c7.58,5.85,26.56,11.54,36.01,13.09c9.71,1.59,29.63-0.7,39.28-2.62c9.87-1.96,28.79-9.73,37.32-15.06
			c7.04-4.39,19.14-17.22,24.67-22.19c8.29-7.46,34-26.22,34-26.22s-59.14,0.52-79.32,0.56c-18.92,0.03-63.71,2.12-82.52,4.12
			c-6.04,0.64-24.01,3.63-24.01,3.63L594.75,929.45z"/>
		<path class="st23" d="M680.32,956.87c1.91-5.36,16.6-3.95,22.11-5.37c5.1-1.31,15.17-4.47,20.33-5.53
			c3.26-0.67,11.42-4.61,13.17-1.79c1.88,3.03-5.87,9.11-8.62,11.38c-3.81,3.15-12.89,7.75-17.72,8.78
			c-5.61,1.2-17.81,3.41-22.93,0.81C686.66,965.16,679.44,959.33,680.32,956.87z"/>
		<path class="st24" d="M596.38,930.18c0,0,5.03,3.31,6.68,4.45c1.12,0.78,3.32,2.42,4.54,3.03c4.33,2.17,13.75,4.9,18.54,5.69
			c5.1,0.85,15.49,0.5,20.65,0.81c5.77,0.36,17.31,1.45,23.09,1.3c5.32-0.14,15.87-1.72,21.14-2.44c4.13-0.57,12.34-1.97,16.45-2.66
			c2.43-0.41,7.28-1.26,9.73-1.57c5.07-0.64,15.27-1.38,20.33-2.11c6.61-0.95,19.72-3.65,26.18-5.37c3.08-0.82,8.88-2.93,12.14-3.87
			c3.19-0.92,12.45-3.14,13.6-3.69c2.18-1.04,15.5-5.97,15.5-5.97l-6.27,0.74c0,0-10.15,1.97-13.04,2.75
			c-4.75,1.28-15.3,3.67-20.02,5.04c-6.37,1.85-17.52,5.03-24.03,6.32c-4.62,0.91-16.03,2.55-20.7,3.11
			c-6.15,0.74-16.95,1.35-23.05,2.41c-5.13,0.9-18.31,2.24-23.49,2.74c-4.69,0.46-13.66,0.19-18.36-0.16
			c-5.51-0.41-14.93-0.31-20.45-0.6c-4.55-0.24-11.8-1.84-16.21-2.98c-2.84-0.73-7.87-4.1-10.73-4.72L596.38,930.18z"/>
	</g>
	<path class="st25" d="M690.13,556.79c-3.46,2.23-10.28,8.85-10.14,12.97c0.13,3.88,6.67,10.4,10.37,11.55
		c4.28,1.33,13.68,0.75,17.92-0.71c5.76-1.99,15.7-9.44,21.22-12.02c5.42-2.54,17.01-5.84,22.87-7.07
		c5.43-1.14,16.47-2.51,21.93-3.54c5.41-1.02,16.04-3.95,21.46-4.95c6.43-1.19,19.42-2.75,25.94-3.3c6.59-0.56,19.8-1.88,26.41-1.65
		c5.28,0.18,15.81,1.5,20.98,2.59c4.66,0.98,13.84,3.55,18.39,4.95c2.9,0.89,8.53,3.48,11.55,3.77c2.72,0.26,7.69,0.06,8.85-2.41
		c1.47-3.15-2.68-9.37-5.6-11.26c-3.32-2.15-10.28-3.68-14.09-4.72c-6.22-1.69-18.49-5.73-24.52-8.02
		c-6.2-2.35-26.03-6.75-32.52-8.14c-11.41-2.45-35.01-0.6-44.68,0.06c-10.41,0.7-23.73,2.97-32.26,5.37
		c-7.72,2.17-24.17,8.33-32,11.67C722.2,541.94,697.56,552,690.13,556.79z"/>
	<path class="st26" d="M506.66,189.21c0,0,17.57-24.44,25.43-30.52c7.44-5.75,24.82-14.15,34.04-16.04
		c10.83-2.22,33.27-3.19,44.21-1.56c10.35,1.53,30.92,6.7,40.3,11.35c10.96,5.43,31.03,19.79,40.3,27.78
		c7.44,6.41,28.17,27.39,28.17,27.39l3.75,4.85l12.29,15.89c0,0-38.27-26.23-50.86-35.21c-5.24-3.74-15.03-12.27-20.74-15.26
		c-8.14-4.26-25.66-11.06-34.82-11.74c-7.77-0.57-23.8,0.72-30.91,3.91c-6.18,2.77-16.73,11.65-21.52,16.43
		c-3.53,3.52-13.3,14.87-13.3,14.87s8.06-22.57,2.35-25.43c-10.96-5.49-36.38,32.86-36.38,32.86s19.6-29.62,12.52-35.99
		L506.66,189.21z"/>
	<path class="st27" d="M894.56,313.08c0,0,89.59,108.14,111.87,154.65c19.3,40.28,42.57,145.76,49.91,189.81
		c2.92,17.55,3.76,71.07,3.76,71.07L894.56,313.08z"/>
	<path class="st26" d="M798.45,88.71c0,0,82.09,51.31,106.29,73.7c10.55,9.76,23.59,24.61,37.08,41.36
		c26.07,32.38,53.81,71.86,68.52,95.42c22.16,35.5,47.3,152.71,47.3,152.71s-71.19-148.53-95.27-181.66
		c-16.81-23.12-50.83-69.39-71.1-89.55L798.45,88.71z"/>
	<path class="st28" d="M673.45,123.71c0,0,54.79,26.7,70.95,38.35c7.04,5.08,15.74,12.8,24.75,21.52
		c17.4,16.85,35.92,37.4,45.73,49.66c14.79,18.47,31.57,79.47,31.57,79.47s-47.52-77.3-63.59-94.54
		c-11.22-12.03-33.93-36.11-47.45-46.6L673.45,123.71z"/>
	<path class="st28" d="M1086.47,973.36c0,0,2.73,48.83,0.96,64.6c-0.77,6.88-2.71,15.9-5.21,25.5
		c-4.83,18.55-11.76,39.26-16.36,50.73c-6.94,17.29-42.08,51.49-42.08,51.49s34.51-62.07,40.12-79.82
		c3.91-12.39,11.65-37.37,13.63-50.84L1086.47,973.36z"/>
	<path class="st28" d="M547.06,1055.36c0,0,6.76,40.02,6.87,53.02c0.05,5.67-0.62,13.13-1.67,21.09
		c-2.03,15.37-5.5,32.57-8.03,42.13c-3.8,14.39-28.12,43.49-28.12,43.49s21.18-51.96,23.9-66.7c1.9-10.29,5.59-31.02,5.87-42.14
		L547.06,1055.36z"/>
</g>
</svg>
